<svg width="679" height="110" viewBox="0 0 679 110" fill="none" xmlns="http://www.w3.org/2000/svg">
<path d="M226.177 80.96L230.192 67.98H255.657L259.672 80.96H278.207L254.722 7.15H232.337L207.477 80.96H226.177ZM251.642 54.945H234.647L243.282 27.94L251.642 54.945ZM307.082 80.96V5.06H289.482V80.96H307.082ZM343.382 107.25L343.381 78.679L343.436 78.7292C343.988 79.2396 344.579 79.6972 345.209 80.102L345.527 80.3C348.204 81.9133 351.54 82.72 355.537 82.72C360.12 82.72 364.42 81.5833 368.435 79.31C372.45 77.0367 375.695 73.755 378.17 69.465C380.645 65.175 381.882 59.9867 381.882 53.9C381.882 47.7767 380.663 42.57 378.225 38.28C375.786 33.99 372.624 30.7083 368.737 28.435C364.85 26.1617 360.744 25.025 356.417 25.025C353.154 25.025 350.074 25.8592 347.177 27.5275C345.091 28.7287 343.296 30.4574 341.79 32.7135L341.573 33.046L340.137 26.785H325.782V107.25H343.382ZM352.732 66.66C351.045 66.66 349.487 66.3483 348.057 65.725C346.627 65.1017 345.49 64.24 344.647 63.14C343.804 62.04 343.382 60.7567 343.382 59.29H343.381V50.38L343.388 50.002C343.435 48.3781 343.793 46.9402 344.46 45.6881L344.62 45.4025C345.445 43.9908 346.59 42.9 348.057 42.13C349.524 41.36 351.192 40.975 353.062 40.975C355.372 40.975 357.361 41.5067 359.03 42.57C360.698 43.6333 361.99 45.1367 362.907 47.08C363.824 49.0233 364.282 51.2967 364.282 53.9C364.282 56.98 363.668 59.455 362.44 61.325C361.211 63.195 359.708 64.5517 357.93 65.395C356.151 66.2383 354.419 66.66 352.732 66.66ZM406.357 19.8C409.584 19.8 412.132 18.9475 414.002 17.2425C415.872 15.5375 416.807 13.1267 416.807 10.01C416.807 6.96667 415.872 4.5375 414.002 2.7225C412.132 0.9075 409.584 0 406.357 0C403.02 0 400.445 0.9075 398.63 2.7225C396.815 4.5375 395.907 6.96667 395.907 10.01C395.907 13.1267 396.815 15.5375 398.63 17.2425C400.445 18.9475 403.02 19.8 406.357 19.8ZM415.157 80.96V26.455H397.557V80.96H415.157ZM452.997 80.96V58.135L453 57.5751C453.042 53.8758 453.5 50.8508 454.375 48.5001L454.51 48.1525C455.518 45.6408 456.865 43.8167 458.552 42.68C460.239 41.5433 462.09 40.975 464.107 40.975C466.087 40.975 467.774 41.6625 469.167 43.0375C470.56 44.4125 471.257 46.53 471.257 49.39V80.96H488.967V49.39C488.967 44.66 488.27 40.4617 486.877 36.795C485.484 33.1283 483.311 30.25 480.36 28.16C477.408 26.07 473.604 25.025 468.947 25.025C464.877 25.025 461.238 26.1617 458.03 28.435C456.038 29.846 454.308 31.7585 452.839 34.1725L452.688 34.426L450.907 26.785H435.397V80.96H452.997ZM527.852 82.72C532.325 82.72 536.276 81.9133 539.705 80.3C543.133 78.6867 545.92 76.505 548.065 73.755C550.21 71.005 551.557 67.9433 552.107 64.57H534.617C534.14 66 533.297 67.045 532.087 67.705C530.877 68.365 529.465 68.695 527.852 68.695C525.872 68.695 524.231 68.2275 522.93 67.2925C521.628 66.3575 520.647 65.0467 519.987 63.36C519.327 61.6733 518.997 59.675 518.997 57.365L518.998 57.475H551.557C552.425 53.5845 552.595 49.8009 552.064 46.1243L551.97 45.5125C551.328 41.6442 549.971 38.17 547.9 35.09C545.828 32.01 543.105 29.5625 539.732 27.7475C536.359 25.9325 532.399 25.025 527.852 25.025C523.269 25.025 518.979 26.1617 514.982 28.435C510.985 30.7083 507.759 33.9808 505.302 38.2525C502.845 42.5242 501.617 47.6483 501.617 53.625C501.617 59.6017 502.855 64.7717 505.33 69.135C507.805 73.4983 511.04 76.8533 515.037 79.2C519.034 81.5467 523.305 82.72 527.852 82.72ZM536.211 48.565H519.076L519.077 48.5498C519.211 47.0457 519.512 45.7086 519.979 44.5385L520.125 44.1925C520.876 42.4875 521.94 41.1858 523.315 40.2875C524.69 39.3892 526.312 38.94 528.182 38.94C529.869 38.94 531.253 39.2792 532.335 39.9575C533.416 40.6358 534.25 41.5342 534.837 42.6525C535.424 43.7708 535.818 44.99 536.02 46.31C536.12 46.97 536.182 47.6254 536.205 48.2763L536.211 48.565ZM570.807 81.95C574.29 81.95 577.169 80.8958 579.442 78.7875C581.715 76.6792 582.852 73.9933 582.852 70.73C582.852 67.4667 581.715 64.7533 579.442 62.59C577.169 60.4267 574.29 59.345 570.807 59.345C567.324 59.345 564.491 60.4267 562.31 62.59C560.128 64.7533 559.037 67.4667 559.037 70.73C559.037 73.9567 560.128 76.6333 562.31 78.76C564.491 80.8867 567.324 81.95 570.807 81.95ZM604.412 19.8C607.639 19.8 610.187 18.9475 612.057 17.2425C613.927 15.5375 614.862 13.1267 614.862 10.01C614.862 6.96667 613.927 4.5375 612.057 2.7225C610.187 0.9075 607.639 0 604.412 0C601.185 0 598.619 0.9075 596.712 2.7225C594.805 4.5375 593.852 6.96667 593.852 10.01C593.852 13.1267 594.805 15.5375 596.712 17.2425C598.619 18.9475 601.185 19.8 604.412 19.8ZM593.907 109.175C600.324 109.175 605.182 107.424 608.482 103.923C611.782 100.421 613.432 94.5083 613.432 86.185V26.565H595.722V85.855C595.722 89.0083 595.163 91.1167 594.045 92.18C592.926 93.2433 591.23 93.775 588.957 93.775C587.197 93.775 585.29 93.5183 583.237 93.005C581.184 92.4917 579.369 91.9233 577.792 91.3V106.425C580.322 107.122 582.834 107.754 585.327 108.323C587.82 108.891 590.68 109.175 593.907 109.175ZM654.572 82.72C659.119 82.72 663.189 81.8767 666.782 80.19C670.375 78.5033 673.208 76.3125 675.28 73.6175C677.351 70.9225 678.387 68.0717 678.387 65.065C678.387 61.765 677.324 59.015 675.197 56.815C673.07 54.615 670.155 52.7817 666.452 51.315L651.492 45.32C649.182 44.5133 648.027 43.4133 648.027 42.02C648.027 40.9933 648.577 40.1683 649.677 39.545C650.777 38.9217 652.28 38.61 654.187 38.61C656.497 38.61 658.147 39.0408 659.137 39.9025C660.127 40.7642 660.622 41.7817 660.622 42.955H676.737C676.7 37.7483 674.739 33.4583 670.852 30.085C666.965 26.7117 661.41 25.025 654.187 25.025C646.487 25.025 640.419 26.51 635.982 29.48C631.545 32.45 629.327 36.3367 629.327 41.14C629.327 44.55 630.381 47.4925 632.49 49.9675C634.598 52.4425 637.595 54.4867 641.482 56.1L654.627 61.215C656.02 61.765 657.047 62.315 657.707 62.865C658.367 63.415 658.697 64.1483 658.697 65.065C658.697 65.7617 658.459 66.4125 657.982 67.0175C657.505 67.6225 656.79 68.1083 655.837 68.475C654.884 68.8417 653.674 69.025 652.207 69.025C649.787 69.025 647.871 68.6583 646.46 67.925C645.048 67.1917 644.305 65.8717 644.232 63.965H628.337C628.3 68.1817 629.391 71.6742 631.61 74.4425C633.828 77.2108 636.917 79.2825 640.877 80.6575C644.837 82.0325 649.402 82.72 654.572 82.72Z" fill="#2D3441"/>
<path fill-rule="evenodd" clip-rule="evenodd" d="M139.552 2.2627L179.424 41.9599L139.552 81.6571L99.6802 41.9599L139.552 2.2627Z" fill="#77C1D2"/>
<path fill-rule="evenodd" clip-rule="evenodd" d="M39.8721 2.2627L122.532 84.56H42.7877L0 41.9599L39.8721 2.2627Z" fill="#2D3441"/>
</svg>
