<svg xmlns="http://www.w3.org/2000/svg" fill="none" viewBox="0 0 181 144"><mask id="a" width="181" height="144" x="0" y="0" maskUnits="userSpaceOnUse" style="mask-type:alpha"><path fill="#C5293A" d="M0 0h181v144H0z"/></mask><g mask="url(#a)"><path fill="#fff" d="M-28.201 56.175 191.452-2.68l23.812 88.865L-4.39 145.04z"/><path fill="#B50909" d="M39.6 38.008 184.49-.815l5.953 22.216L56.194 57.373 39.6 38.008Z"/><path fill="#C5293A" d="M73.722 76.487-22.87 102.37l-5.953-22.216 73.784-19.77a20 20 0 0 1 20.364 6.304l8.397 9.8ZM40.825 38.715l-96.592 25.882-5.953-22.216L12.064 22.61a20 20 0 0 1 20.363 6.305l8.398 9.8Z"/><path fill="#1A4480" d="m73.722 76.487-99.49 26.659-17.6-65.683 55.651-14.912a20 20 0 0 1 20.322 6.258l41.117 47.678Z"/><path fill="#B50909" d="m73.722 76.488 144.889-38.823 5.953 22.216L96.4 94.222a10 10 0 0 1-10.182-3.152L73.722 76.488ZM106.878 115.226l144.889-38.823 5.953 22.216-128.164 34.342a10.002 10.002 0 0 1-10.182-3.152l-12.496-14.583ZM106.878 115.226l-125.57 33.647-5.953-22.217L84.201 97.491a10 10 0 0 1 10.181 3.153l12.496 14.582Z"/><path fill="#fff" d="M17.67 44.041c.051-.967 1.31-1.305 1.838-.492l5.644 8.691a1 1 0 0 0 1.098.421l10.01-2.682c.936-.25 1.646.843 1.036 1.596l-6.522 8.053a1 1 0 0 0-.061 1.174l5.644 8.692c.528.812-.293 1.825-1.197 1.478l-9.675-3.714a1 1 0 0 0-1.136.304l-6.521 8.054c-.61.753-1.827.286-1.776-.681l.542-10.35a1 1 0 0 0-.64-.986l-9.675-3.713c-.905-.348-.836-1.65.1-1.9l10.01-2.682a1 1 0 0 0 .74-.914l.542-10.349Z"/></g></svg>