<svg width="702" height="88" viewBox="0 0 702 88" fill="none" xmlns="http://www.w3.org/2000/svg">
<mask id="mask0_48_504" style="mask-type:luminance" maskUnits="userSpaceOnUse" x="0" y="0" width="702" height="87">
<path d="M0 0H702V86.4H0V0Z" fill="white"/>
</mask>
<g mask="url(#mask0_48_504)">
<path fill-rule="evenodd" clip-rule="evenodd" d="M72.3435 0C53.0519 0 40.9947 9.6 36.1718 28.8C43.4061 19.2 51.8462 15.6 61.492 18C66.9955 19.368 70.9288 23.344 75.2828 27.7413C82.3752 34.9067 90.5848 43.2 108.515 43.2C127.807 43.2 139.864 33.6 144.687 14.4C137.453 24 129.013 27.6 119.367 25.2C113.863 23.832 109.93 19.856 105.576 15.4587C98.4836 8.29333 90.274 0 72.3435 0ZM36.1718 43.2C16.8802 43.2 4.8229 52.8 0 72C7.23435 62.4 15.6744 58.8 25.3202 61.2C30.8237 62.5707 34.757 66.544 39.111 70.9413C46.2034 78.1067 54.413 86.4 72.3435 86.4C91.6351 86.4 103.692 76.8 108.515 57.6C101.281 67.2 92.8408 70.8 83.195 68.4C77.6916 67.032 73.7582 63.056 69.4042 58.6587C62.3119 51.4933 54.1022 43.2 36.1718 43.2Z" fill="#38BDF8"/>
<path fill-rule="evenodd" clip-rule="evenodd" d="M217.02 36.4054H204.395V60.7254C204.395 67.2107 208.671 67.1094 217.02 66.7041V76.5334C200.118 78.5601 193.398 73.8987 193.398 60.7254V36.4054H184.031V25.8667H193.398V12.2561L204.395 9.01339V25.8667H217.02V36.4054ZM265.147 25.8667H276.143V76.5334H265.147V69.2374C261.278 74.6081 255.271 77.8507 247.329 77.8507C233.482 77.8507 221.977 66.1974 221.977 51.2001C221.977 36.1014 233.482 24.5494 247.329 24.5494C255.271 24.5494 261.278 27.7921 265.147 33.0614V25.8667ZM249.06 67.4134C258.224 67.4134 265.147 60.6241 265.147 51.2001C265.147 41.7761 258.224 34.9867 249.06 34.9867C239.897 34.9867 232.973 41.7761 232.973 51.2001C232.973 60.6241 239.897 67.4134 249.06 67.4134ZM294.47 18.2667C290.601 18.2667 287.445 15.0241 287.445 11.2747C287.448 9.42141 288.19 7.64502 289.507 6.33453C290.823 5.02404 292.608 4.28625 294.47 4.28273C296.332 4.28625 298.117 5.02404 299.434 6.33453C300.751 7.64502 301.492 9.42141 301.496 11.2747C301.496 15.0241 298.339 18.2667 294.47 18.2667ZM288.972 76.5334V25.8667H299.968V76.5334H288.972ZM312.696 76.5334V2.56006H323.692V76.5334H312.696ZM395.065 25.8667H406.672L390.687 76.5334H379.895L369.306 42.3841L358.615 76.5334H347.822L331.837 25.8667H343.444L353.32 60.8267L364.011 25.8667H374.498L385.087 60.8267L395.065 25.8667ZM420.316 18.2667C416.447 18.2667 413.291 15.0241 413.291 11.2747C413.294 9.42141 414.035 7.64502 415.352 6.33453C416.669 5.02404 418.454 4.28625 420.316 4.28273C422.178 4.28625 423.963 5.02404 425.28 6.33453C426.596 7.64502 427.338 9.42141 427.341 11.2747C427.341 15.0241 424.185 18.2667 420.316 18.2667ZM414.818 76.5334V25.8667H425.814V76.5334H414.818ZM465.319 24.5494C476.722 24.5494 484.868 32.2507 484.868 45.4241V76.5334H473.872V46.5387C473.872 38.8374 469.392 34.7841 462.468 34.7841C455.239 34.7841 449.537 39.0401 449.537 49.3761V76.5334H438.541V25.8667H449.537V32.3521C452.897 27.0827 458.395 24.5494 465.319 24.5494ZM536.998 5.60006H547.994V76.5334H536.998V69.2374C533.129 74.6081 527.122 77.8507 519.18 77.8507C505.333 77.8507 493.828 66.1974 493.828 51.2001C493.828 36.1014 505.333 24.5494 519.18 24.5494C527.122 24.5494 533.129 27.7921 536.998 33.0614V5.60006ZM520.911 67.4134C530.074 67.4134 536.998 60.6241 536.998 51.2001C536.998 41.7761 530.074 34.9867 520.911 34.9867C511.747 34.9867 504.824 41.7761 504.824 51.2001C504.824 60.6241 511.747 67.4134 520.911 67.4134ZM584.852 77.8507C569.477 77.8507 557.972 66.1974 557.972 51.2001C557.972 36.1014 569.477 24.5494 584.852 24.5494C594.83 24.5494 603.484 29.7174 607.557 37.6214L598.088 43.0934C595.848 38.3307 590.859 35.2907 584.75 35.2907C575.79 35.2907 568.968 42.0801 568.968 51.2001C568.968 60.3201 575.79 67.1094 584.75 67.1094C590.859 67.1094 595.848 63.9681 598.292 59.3067L607.761 64.6774C603.484 72.6827 594.83 77.8507 584.852 77.8507ZM625.884 39.8507C625.884 49.0721 653.273 43.4987 653.273 62.2454C653.273 72.3787 644.415 77.8507 633.418 77.8507C623.237 77.8507 615.906 73.2907 612.648 65.9947L622.117 60.5227C623.746 65.0827 627.818 67.8187 633.418 67.8187C638.306 67.8187 642.073 66.1974 642.073 62.1441C642.073 53.1254 614.684 58.1921 614.684 40.0534C614.684 30.5281 622.931 24.5494 633.317 24.5494C641.666 24.5494 648.589 28.4001 652.153 35.0881L642.887 40.2561C641.055 36.3041 637.491 34.4801 633.317 34.4801C629.346 34.4801 625.884 36.2027 625.884 39.8507ZM672.821 39.8507C672.821 49.0721 700.21 43.4987 700.21 62.2454C700.21 72.3787 691.352 77.8507 680.356 77.8507C670.174 77.8507 662.843 73.2907 659.585 65.9947L669.054 60.5227C670.683 65.0827 674.756 67.8187 680.356 67.8187C685.243 67.8187 689.01 66.1974 689.01 62.1441C689.01 53.1254 661.622 58.1921 661.622 40.0534C661.622 30.5281 669.869 24.5494 680.254 24.5494C688.603 24.5494 695.527 28.4001 699.09 35.0881L689.825 40.2561C687.992 36.3041 684.429 34.4801 680.254 34.4801C676.283 34.4801 672.821 36.2027 672.821 39.8507Z" fill="#0F172A"/>
</g>
</svg>
