<svg
  width="678"
  height="109"
  viewBox="0 0 678 109"
  fill="none"
  xmlns="http://www.w3.org/2000/svg"
>
  <g clip-path="url(#clip0_2001_498)">
    <path
      d="M108.019 11.6968C117.117 1.45884 144.403 -2.25939 151.403 1.33992C158.403 4.93773 179.94 32.3503 175.895 39.0793C169.13 50.3303 157.611 58.5782 155.482 60.2145C153.029 56.3066 137.652 62.9422 141.167 69.9993C141.433 72.9619 126.176 80.1409 119.232 80.7355C118.645 80.8801 118.098 80.8861 117.606 80.7325C108.565 79.6246 92.3944 61.1192 90.4495 53.621C86.9766 40.2143 104.663 15.4707 108.017 11.6968"
      fill="#BABABA"
    />
    <path
      d="M108.019 11.6968C117.117 1.45884 144.403 -2.25939 151.403 1.33992C158.403 4.93773 179.94 32.3503 175.895 39.0793M108.019 11.6968C104.663 15.4707 86.9769 40.2143 90.4513 53.621C92.3932 61.1192 108.565 79.6261 117.608 80.7325M108.019 11.6968C124.68 42.3986 142.672 52.8683 141.167 54.9457M175.895 39.0793C169.13 50.3303 157.611 58.5782 155.483 60.2145C153.029 56.3066 137.652 62.9422 141.167 69.9993C141.457 73.2223 123.373 81.437 117.608 80.7325M175.895 39.0793L141.167 54.9457M117.608 80.7325C124.06 82.7648 139.661 57.0231 141.167 54.9457"
      stroke="#6B6B6B"
      stroke-opacity="0.78"
    />
    <path
      d="M141.193 69.9622C138.266 62.6311 152.701 56.411 155.494 60.1774L187.844 94.8307C185.819 91.1878 166.772 101.98 170.532 108.379L141.193 69.9622Z"
      fill="#D1A656"
      stroke="#7A550F"
    />
    <path
      d="M169.784 106.874C170.948 113.807 192.134 102.189 187.848 94.8309C187.293 91.0133 169.162 100.595 169.784 106.874Z"
      fill="#B87E44"
      stroke="#7A550F"
    />
    <path
      d="M123.172 17.6222C121.157 11.6053 149.107 7.28644 149.143 9.70254C152.533 10.258 167.029 31.6763 165.03 31.3496C165.125 35.2936 146.501 43.5295 142.798 41.9353C140.678 41.9353 126.891 28.7227 123.172 17.6222Z"
      fill="#89A5E8"
      stroke="#456ABF"
    />
    <path
      d="M149.998 29.4049L150.151 29.9288C150.174 30.004 150.193 30.0617 150.208 30.1019L150.245 30.1982L150.273 30.2675L150.309 30.3548C150.337 30.429 150.37 30.501 150.409 30.57C150.441 30.6345 150.477 30.6978 150.514 30.7597C150.554 30.8307 150.597 30.9 150.642 30.9675L150.771 31.1797L150.862 31.3137C150.897 31.3619 150.929 31.4122 150.958 31.4642L151.009 31.5515C151.054 31.6195 151.093 31.691 151.127 31.7653C151.146 31.8044 151.167 31.8501 151.19 31.9023L151.34 32.2244L151.416 32.3795C151.441 32.4297 151.463 32.4768 151.483 32.521L151.604 32.801C151.635 32.8772 151.673 32.9507 151.717 33.0208C151.759 33.0959 151.799 33.1722 151.837 33.2496L151.897 33.3745C151.933 33.4539 151.971 33.5322 152.012 33.6094L152.066 33.7177L152.12 33.8261C152.138 33.8623 152.157 33.8969 152.176 33.93C152.219 34.0011 152.259 34.0739 152.296 34.1483C152.341 34.2283 152.383 34.3096 152.423 34.3921L152.518 34.5773L152.615 34.7625C152.67 34.8665 152.728 34.9689 152.789 35.0696L152.804 35.0951C152.807 35.1032 152.811 35.1107 152.817 35.1177L152.832 35.1433L152.846 35.1734L152.861 35.2035C152.873 35.2267 152.883 35.2509 152.891 35.2758C152.898 35.2918 152.903 35.3059 152.906 35.3179L152.918 35.3511L152.933 35.3887C152.94 35.4027 152.954 35.4389 152.975 35.4971L153.028 35.6506M146.401 30.5324L146.883 30.2404L147.079 30.1184C147.134 30.0813 147.193 30.0447 147.256 30.0085L147.422 29.9092C147.532 29.8411 147.645 29.7779 147.761 29.7195L147.941 29.6247L148.294 29.441C148.354 29.4109 148.413 29.3803 148.47 29.3492L148.644 29.2589L148.967 29.0963L149.135 29.0135C149.361 28.9017 149.584 28.7842 149.803 28.6612L150.123 28.4987C150.331 28.3945 150.545 28.3 150.762 28.2157L151.1 28.0817L151.545 27.9146L151.663 27.8649L151.881 27.7806L152.072 27.7084C152.11 27.6937 152.149 27.6807 152.188 27.6692L152.254 27.6451L152.332 27.609L152.634 27.4555M158.128 25.6746C157.959 25.5909 157.788 25.5096 157.616 25.4307L157.511 25.3856C157.402 25.3476 157.29 25.3199 157.177 25.3028C157.098 25.2935 157.018 25.2905 156.939 25.2938L156.787 25.2953C156.65 25.3109 156.516 25.3464 156.389 25.4006C156.257 25.4568 156.13 25.5275 156.013 25.6114C155.959 25.6505 155.907 25.6933 155.858 25.7393C155.767 25.8267 155.682 25.9197 155.602 26.0178C155.558 26.076 155.512 26.1413 155.465 26.2135L155.331 26.4168C155.289 26.4805 155.249 26.5457 155.212 26.6125C155.141 26.7381 155.082 26.8707 155.038 27.0084C154.968 27.22 154.924 27.4394 154.908 27.6617C154.901 27.7453 154.896 27.8292 154.893 27.9131C154.887 28.0791 154.884 28.2452 154.884 28.4114C154.884 28.4896 154.892 28.5699 154.907 28.6522C154.95 28.8714 155.034 29.0807 155.154 29.2694C155.22 29.3726 155.29 29.473 155.364 29.5705C155.407 29.6238 155.454 29.6741 155.504 29.721L155.563 29.7662C155.612 29.7948 155.664 29.8185 155.718 29.8369C155.793 29.862 155.869 29.8811 155.947 29.8941C155.977 29.8992 156.011 29.9027 156.049 29.9047L156.173 29.9092C156.218 29.9092 156.271 29.9077 156.332 29.9047C156.392 29.8997 156.451 29.8911 156.51 29.8791C156.708 29.8335 156.901 29.7679 157.086 29.6834L157.321 29.575L157.568 29.4636C157.81 29.3524 158.06 29.2627 158.318 29.1956C158.479 29.1617 158.641 29.1331 158.804 29.1098L159.028 29.0752C159.271 29.0362 159.517 29.017 159.763 29.018L159.858 29.0165H159.95C159.958 29.0165 159.975 29.0215 160.001 29.0316C160.07 29.0581 160.138 29.0898 160.203 29.1264C160.252 29.1528 160.299 29.182 160.346 29.2137C160.377 29.2376 160.407 29.2627 160.436 29.289L160.479 29.3281C160.494 29.3407 160.507 29.356 160.516 29.3733L160.555 29.447L160.604 29.5464C160.625 29.5825 160.643 29.6207 160.66 29.6608C160.699 29.7482 160.725 29.8403 160.738 29.9348C160.744 29.9789 160.749 30.0251 160.752 30.0733C160.758 30.175 160.76 30.2769 160.759 30.3789C160.758 30.4343 160.753 30.4895 160.746 30.5444C160.737 30.6054 160.724 30.6657 160.707 30.7251C160.672 30.8563 160.631 30.9859 160.585 31.1135C160.4 31.6501 160.056 32.1182 159.6 32.4563C159.464 32.5518 159.32 32.6373 159.171 32.7122C159.024 32.7849 158.87 32.8444 158.712 32.8898C158.563 32.9328 158.412 32.9699 158.259 33.0012C158.193 33.0135 158.126 33.0235 158.059 33.0313L157.627 33.0719L157.445 33.087L157.291 33.1005L157.147 33.1081L156.823 33.1246C156.708 33.1326 156.592 33.1361 156.477 33.1352C156.393 33.1366 156.31 33.1346 156.227 33.1291L156.143 33.1246C156.098 33.1196 156.054 33.1079 156.013 33.09L155.867 33.0343"
      stroke="white"
      stroke-linecap="round"
    />
    <path
      d="M115.466 38.9077C117.247 36.9733 123.631 44.6747 122.326 46.9689C120.249 50.6194 114.2 55.7421 114.2 57.2686C114.2 58.795 117.237 59.7374 117.237 62.5629C117.237 64.0592 105.164 62.6954 105.188 61.8027C104.244 61.1102 102.418 52.2 102.773 47.6072C103.127 43.0143 107.673 51.7695 108.399 50.6194C112.734 43.752 113.687 40.8436 115.466 38.9077Z"
      fill="#FCD056"
      stroke="#B8973D"
    />
    <path
      d="M564.799 11.8272C564.799 11.4085 564.924 11.0736 565.175 10.8223C565.51 10.4874 565.887 10.3199 566.306 10.3199H580.876C581.295 10.3199 581.63 10.4874 581.881 10.8223C582.216 11.0736 582.384 11.4085 582.384 11.8272V96.7379C582.384 97.1566 582.216 97.5334 581.881 97.8684C581.63 98.1196 581.295 98.2452 580.876 98.2452H564.296C563.459 98.2452 562.915 97.8265 562.663 96.9891L547.088 48.379C547.004 48.1278 546.837 48.044 546.586 48.1278C546.418 48.1278 546.334 48.2534 546.334 48.5046L546.46 96.7379C546.46 97.1566 546.292 97.5334 545.957 97.8684C545.706 98.1196 545.371 98.2452 544.953 98.2452H530.382C529.963 98.2452 529.587 98.1196 529.252 97.8684C529 97.5334 528.875 97.1566 528.875 96.7379V11.8272C528.875 11.4085 529 11.0736 529.252 10.8223C529.587 10.4874 529.963 10.3199 530.382 10.3199H546.837C547.674 10.3199 548.218 10.7386 548.47 11.576L564.171 60.1861C564.254 60.4373 564.38 60.5629 564.547 60.5629C564.799 60.4792 564.924 60.3117 564.924 60.0605L564.799 11.8272Z"
      fill="url(#paint0_linear_2001_498)"
    />
    <path
      d="M564.799 11.8272C564.799 11.4085 564.924 11.0736 565.175 10.8223C565.51 10.4874 565.887 10.3199 566.306 10.3199H580.876C581.295 10.3199 581.63 10.4874 581.881 10.8223C582.216 11.0736 582.384 11.4085 582.384 11.8272V96.7379C582.384 97.1566 582.216 97.5334 581.881 97.8684C581.63 98.1196 581.295 98.2452 580.876 98.2452H564.296C563.459 98.2452 562.915 97.8265 562.663 96.9891L547.088 48.379C547.004 48.1278 546.837 48.044 546.586 48.1278C546.418 48.1278 546.334 48.2534 546.334 48.5046L546.46 96.7379C546.46 97.1566 546.292 97.5334 545.957 97.8684C545.706 98.1196 545.371 98.2452 544.953 98.2452H530.382C529.963 98.2452 529.587 98.1196 529.252 97.8684C529 97.5334 528.875 97.1566 528.875 96.7379V11.8272C528.875 11.4085 529 11.0736 529.252 10.8223C529.587 10.4874 529.963 10.3199 530.382 10.3199H546.837C547.674 10.3199 548.218 10.7386 548.47 11.576L564.171 60.1861C564.254 60.4373 564.38 60.5629 564.547 60.5629C564.799 60.4792 564.924 60.3117 564.924 60.0605L564.799 11.8272Z"
      fill="url(#paint1_linear_2001_498)"
    />
    <path
      d="M460.487 98.2452C459.566 98.2452 459.022 97.7846 458.854 96.8635L441.897 11.9528L441.772 11.4504C441.772 10.6967 442.232 10.3199 443.154 10.3199H458.478C459.483 10.3199 460.027 10.7805 460.111 11.7016L467.27 56.9203C467.354 57.2553 467.48 57.4227 467.647 57.4227C467.814 57.4227 467.94 57.2553 468.024 56.9203L474.807 11.7016C474.89 10.7805 475.435 10.3199 476.44 10.3199H489.126C490.131 10.3199 490.675 10.7805 490.759 11.7016L498.17 56.9203C498.253 57.2553 498.379 57.4227 498.546 57.4227C498.714 57.4227 498.84 57.2553 498.923 56.9203L505.329 11.7016C505.413 10.7805 505.957 10.3199 506.962 10.3199H521.784C522.872 10.3199 523.333 10.8642 523.166 11.9528L507.213 96.8635C507.13 97.7846 506.585 98.2452 505.58 98.2452H492.015C491.01 98.2452 490.466 97.7846 490.382 96.8635L482.971 50.3887C482.887 50.0538 482.762 49.8863 482.594 49.8863C482.427 49.8863 482.301 50.0538 482.217 50.3887L475.56 96.8635C475.477 97.7846 474.932 98.2452 473.927 98.2452H460.487Z"
      fill="url(#paint2_linear_2001_498)"
    />
    <path
      d="M460.487 98.2452C459.566 98.2452 459.022 97.7846 458.854 96.8635L441.897 11.9528L441.772 11.4504C441.772 10.6967 442.232 10.3199 443.154 10.3199H458.478C459.483 10.3199 460.027 10.7805 460.111 11.7016L467.27 56.9203C467.354 57.2553 467.48 57.4227 467.647 57.4227C467.814 57.4227 467.94 57.2553 468.024 56.9203L474.807 11.7016C474.89 10.7805 475.435 10.3199 476.44 10.3199H489.126C490.131 10.3199 490.675 10.7805 490.759 11.7016L498.17 56.9203C498.253 57.2553 498.379 57.4227 498.546 57.4227C498.714 57.4227 498.84 57.2553 498.923 56.9203L505.329 11.7016C505.413 10.7805 505.957 10.3199 506.962 10.3199H521.784C522.872 10.3199 523.333 10.8642 523.166 11.9528L507.213 96.8635C507.13 97.7846 506.585 98.2452 505.58 98.2452H492.015C491.01 98.2452 490.466 97.7846 490.382 96.8635L482.971 50.3887C482.887 50.0538 482.762 49.8863 482.594 49.8863C482.427 49.8863 482.301 50.0538 482.217 50.3887L475.56 96.8635C475.477 97.7846 474.932 98.2452 473.927 98.2452H460.487Z"
      fill="url(#paint3_linear_2001_498)"
    />
    <path
      d="M412.169 99.2499C404.465 99.2499 398.31 96.989 393.704 92.4671C389.099 87.9453 386.796 81.9161 386.796 74.3797V34.1852C386.796 26.6488 389.099 20.6196 393.704 16.0977C398.31 11.5759 404.465 9.31494 412.169 9.31494C419.872 9.31494 426.027 11.5759 430.633 16.0977C435.322 20.6196 437.667 26.6488 437.667 34.1852V74.3797C437.667 81.9161 435.322 87.9453 430.633 92.4671C426.027 96.989 419.872 99.2499 412.169 99.2499ZM412.169 84.0514C414.513 84.0514 416.397 83.2559 417.821 81.6649C419.244 79.9901 419.956 77.8129 419.956 75.1333V33.4316C419.956 30.752 419.244 28.6166 417.821 27.0256C416.397 25.3508 414.513 24.5135 412.169 24.5135C409.824 24.5135 407.94 25.3508 406.516 27.0256C405.176 28.6166 404.506 30.752 404.506 33.4316V75.1333C404.506 77.8129 405.176 79.9901 406.516 81.6649C407.94 83.2559 409.824 84.0514 412.169 84.0514Z"
      fill="url(#paint4_linear_2001_498)"
    />
    <path
      d="M412.169 99.2499C404.465 99.2499 398.31 96.989 393.704 92.4671C389.099 87.9453 386.796 81.9161 386.796 74.3797V34.1852C386.796 26.6488 389.099 20.6196 393.704 16.0977C398.31 11.5759 404.465 9.31494 412.169 9.31494C419.872 9.31494 426.027 11.5759 430.633 16.0977C435.322 20.6196 437.667 26.6488 437.667 34.1852V74.3797C437.667 81.9161 435.322 87.9453 430.633 92.4671C426.027 96.989 419.872 99.2499 412.169 99.2499ZM412.169 84.0514C414.513 84.0514 416.397 83.2559 417.821 81.6649C419.244 79.9901 419.956 77.8129 419.956 75.1333V33.4316C419.956 30.752 419.244 28.6166 417.821 27.0256C416.397 25.3508 414.513 24.5135 412.169 24.5135C409.824 24.5135 407.94 25.3508 406.516 27.0256C405.176 28.6166 404.506 30.752 404.506 33.4316V75.1333C404.506 77.8129 405.176 79.9901 406.516 81.6649C407.94 83.2559 409.824 84.0514 412.169 84.0514Z"
      fill="url(#paint5_linear_2001_498)"
    />
    <path
      d="M332.334 98.2452C331.916 98.2452 331.539 98.1196 331.204 97.8684C330.953 97.5334 330.827 97.1566 330.827 96.7379V11.8272C330.827 11.4085 330.953 11.0736 331.204 10.8223C331.539 10.4874 331.916 10.3199 332.334 10.3199H355.069C362.689 10.3199 368.802 12.539 373.408 16.9771C378.014 21.4152 380.316 27.3188 380.316 34.6878V73.8773C380.316 81.2463 378.014 87.1499 373.408 91.588C368.802 96.0261 362.689 98.2452 355.069 98.2452H332.334ZM348.538 82.4186C348.538 82.8373 348.747 83.0467 349.166 83.0467L354.818 82.9211C357.079 82.8373 358.921 81.8743 360.345 80.0321C361.768 78.1898 362.522 75.7614 362.606 72.7469V35.8182C362.606 32.6362 361.894 30.124 360.47 28.2818C359.047 26.4395 357.121 25.5184 354.692 25.5184H349.166C348.747 25.5184 348.538 25.7278 348.538 26.1465V82.4186Z"
      fill="url(#paint6_linear_2001_498)"
    />
    <path
      d="M332.334 98.2452C331.916 98.2452 331.539 98.1196 331.204 97.8684C330.953 97.5334 330.827 97.1566 330.827 96.7379V11.8272C330.827 11.4085 330.953 11.0736 331.204 10.8223C331.539 10.4874 331.916 10.3199 332.334 10.3199H355.069C362.689 10.3199 368.802 12.539 373.408 16.9771C378.014 21.4152 380.316 27.3188 380.316 34.6878V73.8773C380.316 81.2463 378.014 87.1499 373.408 91.588C368.802 96.0261 362.689 98.2452 355.069 98.2452H332.334ZM348.538 82.4186C348.538 82.8373 348.747 83.0467 349.166 83.0467L354.818 82.9211C357.079 82.8373 358.921 81.8743 360.345 80.0321C361.768 78.1898 362.522 75.7614 362.606 72.7469V35.8182C362.606 32.6362 361.894 30.124 360.47 28.2818C359.047 26.4395 357.121 25.5184 354.692 25.5184H349.166C348.747 25.5184 348.538 25.7278 348.538 26.1465V82.4186Z"
      fill="url(#paint7_linear_2001_498)"
    />
    <path
      d="M300.504 99.2499C295.648 99.2499 291.377 98.2869 287.693 96.361C284.008 94.435 281.161 91.7554 279.151 88.3221C277.141 84.8051 276.137 80.7856 276.137 76.2638V72.6211C276.137 72.2024 276.262 71.8675 276.513 71.6163C276.848 71.2813 277.225 71.1139 277.644 71.1139H292.089C292.507 71.1139 292.842 71.2813 293.094 71.6163C293.429 71.8675 293.596 72.2024 293.596 72.6211V75.3845C293.596 77.9804 294.266 80.0739 295.606 81.6649C296.946 83.2559 298.62 84.0514 300.63 84.0514C302.64 84.0514 304.315 83.2978 305.654 81.7905C306.994 80.2832 307.664 78.3153 307.664 75.8869C307.664 73.3748 306.827 71.2395 305.152 69.481C303.477 67.6387 300.211 64.9591 295.355 61.4421C291.168 58.4275 287.776 55.7479 285.18 53.4032C282.584 51.0585 280.365 48.1695 278.523 44.7363C276.681 41.303 275.76 37.3254 275.76 32.8035C275.76 25.6858 277.979 19.9916 282.417 15.7209C286.855 11.4503 292.717 9.31494 300.002 9.31494C307.371 9.31494 313.275 11.534 317.713 15.9721C322.235 20.4103 324.496 26.2301 324.496 33.4316V36.4462C324.496 36.8649 324.328 37.2417 323.993 37.5766C323.742 37.8279 323.407 37.9535 322.988 37.9535H308.543C308.125 37.9535 307.748 37.8279 307.413 37.5766C307.162 37.2417 307.036 36.8649 307.036 36.4462V33.0548C307.036 30.4589 306.366 28.4073 305.026 26.9C303.77 25.309 302.096 24.5135 300.002 24.5135C297.992 24.5135 296.359 25.2671 295.103 26.7744C293.847 28.1979 293.219 30.2077 293.219 32.8035C293.219 35.3157 294.015 37.5348 295.606 39.4607C297.197 41.3867 300.337 44.0664 305.026 47.4996C310.218 51.3516 314.112 54.4918 316.708 56.9202C319.387 59.2649 321.439 61.9026 322.863 64.8335C324.37 67.6806 325.124 71.1139 325.124 75.1333C325.124 82.5023 322.863 88.3639 318.341 92.7183C313.819 97.0727 307.873 99.2499 300.504 99.2499Z"
      fill="url(#paint8_linear_2001_498)"
    />
    <path
      d="M300.504 99.2499C295.648 99.2499 291.377 98.2869 287.693 96.361C284.008 94.435 281.161 91.7554 279.151 88.3221C277.141 84.8051 276.137 80.7856 276.137 76.2638V72.6211C276.137 72.2024 276.262 71.8675 276.513 71.6163C276.848 71.2813 277.225 71.1139 277.644 71.1139H292.089C292.507 71.1139 292.842 71.2813 293.094 71.6163C293.429 71.8675 293.596 72.2024 293.596 72.6211V75.3845C293.596 77.9804 294.266 80.0739 295.606 81.6649C296.946 83.2559 298.62 84.0514 300.63 84.0514C302.64 84.0514 304.315 83.2978 305.654 81.7905C306.994 80.2832 307.664 78.3153 307.664 75.8869C307.664 73.3748 306.827 71.2395 305.152 69.481C303.477 67.6387 300.211 64.9591 295.355 61.4421C291.168 58.4275 287.776 55.7479 285.18 53.4032C282.584 51.0585 280.365 48.1695 278.523 44.7363C276.681 41.303 275.76 37.3254 275.76 32.8035C275.76 25.6858 277.979 19.9916 282.417 15.7209C286.855 11.4503 292.717 9.31494 300.002 9.31494C307.371 9.31494 313.275 11.534 317.713 15.9721C322.235 20.4103 324.496 26.2301 324.496 33.4316V36.4462C324.496 36.8649 324.328 37.2417 323.993 37.5766C323.742 37.8279 323.407 37.9535 322.988 37.9535H308.543C308.125 37.9535 307.748 37.8279 307.413 37.5766C307.162 37.2417 307.036 36.8649 307.036 36.4462V33.0548C307.036 30.4589 306.366 28.4073 305.026 26.9C303.77 25.309 302.096 24.5135 300.002 24.5135C297.992 24.5135 296.359 25.2671 295.103 26.7744C293.847 28.1979 293.219 30.2077 293.219 32.8035C293.219 35.3157 294.015 37.5348 295.606 39.4607C297.197 41.3867 300.337 44.0664 305.026 47.4996C310.218 51.3516 314.112 54.4918 316.708 56.9202C319.387 59.2649 321.439 61.9026 322.863 64.8335C324.37 67.6806 325.124 71.1139 325.124 75.1333C325.124 82.5023 322.863 88.3639 318.341 92.7183C313.819 97.0727 307.873 99.2499 300.504 99.2499Z"
      fill="url(#paint9_linear_2001_498)"
    />
    <path
      d="M270.387 10.3199C270.806 10.3199 271.141 10.4874 271.392 10.8223C271.727 11.0736 271.894 11.4085 271.894 11.8272V24.0111C271.894 24.4298 271.727 24.8066 271.392 25.1416C271.141 25.3928 270.806 25.5184 270.387 25.5184H254.686C254.267 25.5184 254.058 25.7278 254.058 26.1465V96.7379C254.058 97.1566 253.891 97.5334 253.556 97.8684C253.304 98.1196 252.969 98.2452 252.551 98.2452H237.855C237.436 98.2452 237.059 98.1196 236.724 97.8684C236.473 97.5334 236.347 97.1566 236.347 96.7379V26.1465C236.347 25.7278 236.138 25.5184 235.719 25.5184H220.646C220.228 25.5184 219.851 25.3928 219.516 25.1416C219.265 24.8066 219.139 24.4298 219.139 24.0111V11.8272C219.139 11.4085 219.265 11.0736 219.516 10.8223C219.851 10.4874 220.228 10.3199 220.646 10.3199H270.387Z"
      fill="url(#paint10_linear_2001_498)"
    />
    <path
      d="M270.387 10.3199C270.806 10.3199 271.141 10.4874 271.392 10.8223C271.727 11.0736 271.894 11.4085 271.894 11.8272V24.0111C271.894 24.4298 271.727 24.8066 271.392 25.1416C271.141 25.3928 270.806 25.5184 270.387 25.5184H254.686C254.267 25.5184 254.058 25.7278 254.058 26.1465V96.7379C254.058 97.1566 253.891 97.5334 253.556 97.8684C253.304 98.1196 252.969 98.2452 252.551 98.2452H237.855C237.436 98.2452 237.059 98.1196 236.724 97.8684C236.473 97.5334 236.347 97.1566 236.347 96.7379V26.1465C236.347 25.7278 236.138 25.5184 235.719 25.5184H220.646C220.228 25.5184 219.851 25.3928 219.516 25.1416C219.265 24.8066 219.139 24.4298 219.139 24.0111V11.8272C219.139 11.4085 219.265 11.0736 219.516 10.8223C219.851 10.4874 220.228 10.3199 220.646 10.3199H270.387Z"
      fill="url(#paint11_linear_2001_498)"
    />
    <path
      d="M437.667 34.1846C437.666 26.6484 435.322 20.619 430.633 16.0973C426.027 11.5754 419.872 9.31468 412.168 9.31468C404.464 9.31471 398.31 11.5757 393.704 16.0973L393.278 16.5261C388.956 20.9978 386.795 26.8841 386.795 34.1846V74.3797L386.802 75.0811C386.941 82.291 389.243 88.0864 393.704 92.4671C398.31 96.9887 404.464 99.2496 412.168 99.2497C419.872 99.2497 426.027 96.989 430.633 92.4671C435.176 88.0864 437.518 82.2909 437.66 75.0811L437.667 74.3797V34.1846ZM415.122 75.1337V33.4307C415.122 31.6259 414.661 30.7429 414.218 30.2478L414.178 30.2033L414.137 30.1561C413.7 29.6413 413.202 29.3468 412.168 29.3468C411.143 29.3469 410.646 29.6363 410.211 30.1426C409.796 30.637 409.34 31.5599 409.34 33.4307V75.1337C409.34 76.8978 409.749 77.9111 410.215 78.5418C410.612 78.9449 411.132 79.2175 412.168 79.2175V84.0512L411.734 84.0418C409.59 83.9485 407.85 83.1556 406.516 81.664C405.26 80.0941 404.593 78.0828 404.514 75.63L404.506 75.1337V33.4307C404.506 30.7515 405.176 28.6166 406.516 27.0257C407.939 25.351 409.823 24.5132 412.168 24.5131C414.513 24.5131 416.397 25.351 417.82 27.0257C419.244 28.6166 419.955 30.7514 419.955 33.4307V75.1337L419.947 75.63C419.864 78.0829 419.155 80.0941 417.82 81.664C416.397 83.2551 414.513 84.0512 412.168 84.0512V79.2175C413.245 79.2175 413.765 78.9231 414.168 78.4933C414.682 77.8707 415.122 76.89 415.122 75.1337ZM357.771 35.8179C357.771 33.3183 357.212 31.971 356.645 31.2377C356.182 30.6382 355.699 30.3516 354.692 30.3516H353.372V78.1183L354.64 78.09L354.92 78.0684C355.551 77.9929 356.016 77.7279 356.52 77.0758C357.149 76.2615 357.699 74.9306 357.771 72.6763V35.8179ZM292.088 66.2795V71.1132H277.644V66.2795H292.088ZM566.306 10.3195L566.151 10.3275C565.794 10.3641 565.468 10.5293 565.175 10.8225C564.924 11.0737 564.798 11.4088 564.798 11.8273L564.924 60.0607L564.919 60.151C564.891 60.3521 564.767 60.4891 564.548 60.5624L564.487 60.557C564.349 60.5298 564.243 60.4062 564.17 60.1861L548.47 11.5751C548.25 10.8429 547.805 10.4314 547.137 10.3397L546.837 10.3195V5.48573C548.081 5.48575 549.53 5.81049 550.819 6.80206C552.053 7.75118 552.721 8.99083 553.068 10.0902H553.069L560.016 31.5978L559.965 11.8394V11.8273C559.965 10.373 560.439 8.72182 561.757 7.40358L561.97 7.19992C563.065 6.195 564.55 5.48573 566.306 5.48573V10.3195ZM325.993 42.0461C325.008 42.5745 323.956 42.7865 322.988 42.7866H308.543C307.747 42.7865 306.972 42.6485 306.242 42.382L307.882 43.5998L307.894 43.6079L307.906 43.6174C313.13 47.493 317.187 50.7527 319.982 53.3644C322.392 55.4885 324.408 57.8619 325.993 60.4868V42.0461ZM476.439 10.3195C475.434 10.3196 474.891 10.7809 474.807 11.7019L468.023 56.9195C467.939 57.2545 467.814 57.4226 467.647 57.4226L467.586 57.4145C467.449 57.3779 467.344 57.2126 467.27 56.9195L460.11 11.7019C460.026 10.7807 459.482 10.3195 458.477 10.3195V5.48573C459.66 5.48573 461.319 5.75401 462.762 6.97469C464.148 8.14807 464.707 9.66995 464.882 10.9452H464.885L467.528 27.6367L470.026 10.9844H470.027C470.196 9.70115 470.754 8.16023 472.155 6.97469C473.598 5.7543 475.256 5.48581 476.439 5.48573V10.3195ZM506.962 10.3195L506.779 10.3249C505.891 10.3788 505.408 10.8383 505.329 11.7019L498.923 56.9195C498.839 57.2542 498.714 57.4224 498.547 57.4226L498.486 57.4145C498.348 57.3781 498.242 57.213 498.169 56.9195L490.759 11.7019C490.681 10.8381 490.197 10.3786 489.308 10.3249L489.126 10.3195V5.48573C490.309 5.48578 491.967 5.75433 493.409 6.97469C494.787 8.14029 495.349 9.64958 495.528 10.9196L498.226 27.3791L500.543 11.0235H500.545C500.708 9.73252 501.262 8.17227 502.678 6.97469C504.12 5.754 505.779 5.48573 506.962 5.48573V10.3195ZM580.876 5.48573V10.3195H566.306V5.48573H580.876ZM546.837 5.48573V10.3195H530.383V5.48573H546.837ZM521.783 5.48573V10.3195H506.962V5.48573H521.783ZM489.126 5.48573V10.3195H476.439V5.48573H489.126ZM458.477 5.48573V10.3195H443.153V5.48573H458.477ZM355.068 5.48573V10.3195H332.333V5.48573H355.068ZM270.387 5.48573V10.3195H220.647V5.48573H270.387ZM362.605 72.7465C362.521 75.7611 361.768 78.1899 360.345 80.0321L360.072 80.3666C358.688 81.9906 356.937 82.8425 354.818 82.921L349.165 83.0465L349.018 83.037C348.743 82.9977 348.587 82.8401 348.547 82.565L348.538 82.418V26.1464C348.538 25.7278 348.747 25.518 349.165 25.5179H354.692C357.12 25.5179 359.046 26.4392 360.47 28.2814C361.893 30.1236 362.605 32.6359 362.605 35.8179V72.7465ZM298.052 32.8035C298.052 34.1987 298.461 35.3274 299.332 36.3816C300.04 37.238 301.307 38.4412 303.229 40.0164C302.556 38.9472 302.202 37.7234 302.202 36.4464V33.0544C302.202 31.2934 301.762 30.5038 301.413 30.1115L301.32 30.005L301.233 29.8944C300.928 29.5081 300.672 29.3468 300.001 29.3468C299.386 29.3469 299.129 29.4943 298.817 29.8688L298.773 29.9214L298.728 29.9726C298.498 30.2339 298.052 30.9505 298.052 32.8035ZM236.347 96.7371C236.347 97.1557 236.473 97.5337 236.725 97.8686C237.018 98.0882 237.343 98.2121 237.7 98.2395L237.855 98.2449H252.55C252.917 98.2449 253.22 98.1488 253.458 97.9563L253.555 97.8686C253.848 97.5754 254.013 97.2496 254.05 96.8922L254.058 96.7371V26.1464C254.058 25.7802 254.218 25.5733 254.538 25.5273L254.686 25.5179H270.387C270.753 25.5179 271.055 25.4215 271.293 25.2293L271.391 25.1416C271.684 24.8487 271.85 24.5235 271.886 24.1665L271.894 24.0114V11.8273C271.894 11.4086 271.726 11.0737 271.391 10.8225C271.14 10.4876 270.805 10.3195 270.387 10.3195V5.48573C272.093 5.48573 273.664 6.17098 274.81 7.39144C276.039 8.53862 276.728 10.1154 276.728 11.8273V14.8012C277.439 13.9079 278.218 13.0525 279.065 12.2373C284.566 6.94466 291.711 4.48107 300.001 4.48096C308.395 4.48096 315.6 7.04263 321.097 12.5219C323.104 14.4911 324.731 16.6756 325.993 19.0509V11.8273C325.993 10.373 326.467 8.72182 327.786 7.40358L327.999 7.19992C329.093 6.19514 330.577 5.48589 332.333 5.48573V10.3195C331.915 10.3196 331.538 10.4877 331.203 10.8225C330.952 11.0737 330.827 11.4088 330.827 11.8273V96.7371C330.827 97.1557 330.952 97.5337 331.203 97.8686C331.538 98.1197 331.915 98.2448 332.333 98.2449H355.068C362.45 98.2449 368.418 96.1625 372.971 91.9977L373.408 91.5877C378.013 87.1496 380.316 81.2456 380.316 73.8767V34.6877C380.316 27.549 378.155 21.7856 373.833 17.3974L373.408 16.9766C368.802 12.5385 362.689 10.3195 355.068 10.3195V5.48573C363.684 5.48573 371.087 8.0271 376.762 13.4956C379.862 16.4825 382.069 19.9877 383.44 23.9251C384.781 19.6484 387.051 15.8562 390.318 12.6487C395.999 7.07131 403.46 4.48099 412.168 4.48096C420.876 4.48096 428.339 7.07126 434.02 12.6487H434.018C435.613 14.1908 436.974 15.8691 438.109 17.6725L437.176 12.9926L437.083 12.623L436.938 12.0458V11.4497C436.938 10.0433 437.415 8.2042 439.056 6.8614C440.511 5.67044 442.157 5.48577 443.153 5.48573V10.3195C442.232 10.3195 441.772 10.6964 441.772 11.4497L441.897 11.9527L458.854 96.8638C459.012 97.7271 459.5 98.1856 460.319 98.2395L460.488 98.2449H473.928L474.11 98.2395C474.998 98.1857 475.481 97.7272 475.559 96.8638L482.217 50.3878C482.3 50.0532 482.427 49.8861 482.594 49.8861C482.761 49.8862 482.887 50.0534 482.97 50.3878L490.382 96.8638C490.46 97.727 490.944 98.1855 491.831 98.2395L492.015 98.2449H505.58C506.522 98.2449 507.059 97.8403 507.192 97.0311L507.213 96.8638L523.166 11.9527C523.333 10.8641 522.872 10.3195 521.783 10.3195V5.48573C522.874 5.48573 524.678 5.72802 526.154 7.10687C527.238 6.15266 528.682 5.48573 530.383 5.48573V10.3195L530.227 10.3275C529.87 10.3641 529.544 10.5293 529.251 10.8225C529 11.0737 528.875 11.4089 528.875 11.8273V96.7371C528.875 97.1557 529 97.5337 529.251 97.8686C529.544 98.0885 529.87 98.2121 530.227 98.2395L530.383 98.2449H544.952L545.105 98.2395C545.403 98.216 545.655 98.1212 545.859 97.9563L545.957 97.8686C546.25 97.5754 546.416 97.2496 546.452 96.8922L546.46 96.7371L546.334 48.5037C546.334 48.2842 546.398 48.1602 546.526 48.1328L546.586 48.1274C546.837 48.044 547.004 48.1276 547.087 48.3783L562.664 96.9893C562.915 97.8261 563.459 98.2447 564.295 98.2449H580.876L581.029 98.2395C581.327 98.216 581.578 98.1212 581.783 97.9563L581.881 97.8686C582.174 97.5754 582.34 97.2496 582.376 96.8922L582.384 96.7371V11.8273C582.384 11.4087 582.216 11.0737 581.881 10.8225C581.661 10.5293 581.377 10.3641 581.029 10.3275L580.876 10.3195V5.48573C582.585 5.48578 584.159 6.17281 585.305 7.39683C586.53 8.54338 587.218 10.1177 587.218 11.8273V96.7371C587.218 98.6106 586.41 100.175 585.299 101.286C583.981 102.604 582.33 103.079 580.876 103.079H564.295C563.051 103.079 561.602 102.754 560.313 101.762C559.074 100.81 558.405 99.5644 558.06 98.462V98.4634L551.241 77.1864L551.294 96.7249V96.7371C551.294 98.6103 550.486 100.175 549.375 101.286C548.057 102.604 546.407 103.079 544.952 103.079H530.383C528.918 103.079 527.523 102.614 526.351 101.735L525.798 101.321L525.384 100.768C524.506 99.5966 524.041 98.2015 524.041 96.7371V33.4698L511.982 97.6515C511.802 98.9201 511.24 100.426 509.865 101.59C508.422 102.81 506.763 103.079 505.58 103.079H492.015C490.832 103.079 489.173 102.81 487.73 101.59C486.345 100.417 485.784 98.8977 485.609 97.6231V97.6245L482.829 80.198L480.345 97.549L480.342 97.5476C480.179 98.8373 479.624 100.394 478.211 101.59C476.768 102.81 475.111 103.079 473.928 103.079H460.488C459.224 103.079 457.64 102.752 456.266 101.59C454.932 100.461 454.347 99.0074 454.115 97.8079L454.114 97.8093L442.5 39.6549V74.3797C442.5 82.9885 439.781 90.3405 434.018 95.9143L434.02 95.9157C428.339 101.493 420.876 104.083 412.168 104.083C403.46 104.083 395.999 101.493 390.318 95.9157C387.051 92.7078 384.781 88.9151 383.44 84.6379C382.069 88.5758 379.862 92.0815 376.762 95.0687C371.087 100.537 363.684 103.079 355.068 103.079H332.333C330.869 103.078 329.475 102.614 328.304 101.735L327.751 101.321L327.337 100.768C326.458 99.5966 325.993 98.2015 325.993 96.7371V90.7961C324.828 92.7503 323.399 94.5577 321.694 96.2003C316.116 101.571 308.891 104.083 300.504 104.083C294.999 104.083 289.936 102.988 285.453 100.644C281.002 98.3177 277.468 95.0163 274.979 90.7637L274.955 90.7205C272.481 86.3911 271.302 81.5268 271.302 76.2639V72.621C271.302 71.1669 271.777 69.5168 273.095 68.1987L273.309 67.9937C274.404 66.989 275.888 66.2795 277.644 66.2795V71.1132L277.489 71.1213C277.132 71.1579 276.807 71.3232 276.514 71.6163C276.262 71.8675 276.136 72.2024 276.136 72.621V76.2639L276.148 77.1055C276.266 81.2855 277.267 85.0242 279.15 88.3212C281.16 91.7543 284.007 94.4348 287.692 96.3608C291.146 98.1664 295.116 99.1261 299.601 99.2389L300.504 99.2497C307.643 99.2497 313.445 97.2062 317.912 93.1199L318.341 92.7179C322.721 88.4995 324.98 82.8664 325.117 75.8188L325.123 75.1337C325.123 71.1145 324.37 67.6807 322.863 64.8337C321.439 61.9028 319.387 59.2642 316.707 56.9195C314.112 54.4912 310.218 51.3508 305.026 47.4989C300.63 44.28 297.594 41.7242 295.921 39.8302L295.606 39.4607C294.114 37.6553 293.321 35.5921 293.228 33.2715L293.219 32.8035C293.219 30.2076 293.847 28.1971 295.103 26.7735C296.359 25.2665 297.992 24.5133 300.001 24.5131C302.095 24.5131 303.77 25.3093 305.026 26.9003C306.366 28.4075 307.036 30.4588 307.036 33.0544V36.4464C307.036 36.8649 307.161 37.2417 307.412 37.5766L307.54 37.6642C307.843 37.8565 308.176 37.9527 308.543 37.9529H322.988L323.141 37.9475C323.439 37.9239 323.69 37.8293 323.895 37.6642L323.993 37.5766C324.286 37.2837 324.45 36.9584 324.487 36.6015L324.495 36.4464V33.4307C324.495 26.2295 322.234 20.4098 317.712 15.9718C313.274 11.5338 307.37 9.31468 300.001 9.31468C292.716 9.31479 286.855 11.4504 282.417 15.721L282.007 16.1256C277.842 20.3489 275.76 25.9084 275.76 32.8035L275.771 33.6451C275.879 37.8203 276.796 41.5169 278.523 44.7354C280.366 48.1687 282.585 51.0588 285.18 53.4035C287.776 55.7481 291.168 58.4273 295.355 61.4417C300.212 64.9586 303.477 67.6391 305.152 69.4813C306.826 71.2396 307.664 73.3745 307.665 75.8862L307.656 76.3367C307.578 78.5593 306.91 80.3778 305.654 81.7908L305.399 82.0646C304.103 83.3891 302.514 84.0512 300.63 84.0512V79.2175C301.253 79.2175 301.616 79.0577 302.042 78.5782C302.441 78.1287 302.831 77.3841 302.831 75.8862C302.831 74.5681 302.438 73.6397 301.652 72.8139L301.613 72.7734L301.575 72.7316C300.746 71.8197 299.272 70.5078 297.06 68.7678C297.943 69.8408 298.43 71.1831 298.43 72.621V75.3845C298.43 77.1321 298.865 78.0312 299.303 78.5513C299.761 79.0955 300.102 79.2175 300.63 79.2175V84.0512L300.257 84.0418C298.535 83.9549 297.07 83.2591 295.861 81.954L295.606 81.664C294.35 80.1724 293.681 78.2395 293.603 75.8647L293.596 75.3845V72.621C293.596 72.2024 293.428 71.8675 293.093 71.6163C292.842 71.2813 292.507 71.1132 292.088 71.1132V66.2795C292.891 66.2795 293.664 66.4331 294.377 66.7205C293.796 66.2882 293.18 65.8365 292.529 65.3651L290.962 64.2241C287.385 61.5953 284.367 59.182 281.94 56.9897C278.888 54.2331 276.339 50.8883 274.264 47.0215C271.988 42.7802 270.926 37.9941 270.926 32.8035C270.926 31.9634 270.953 31.1354 271.008 30.3206C270.798 30.3403 270.59 30.3516 270.387 30.3516H258.892V96.7371C258.892 98.6102 258.085 100.175 256.974 101.286C255.656 102.604 254.004 103.079 252.55 103.079H237.855C236.39 103.079 234.995 102.614 233.823 101.735L233.272 101.321L232.856 100.768C231.978 99.5967 231.513 98.2015 231.513 96.7371V30.3516H220.647C219.182 30.3516 217.787 29.887 216.615 29.0083L216.063 28.5943L215.648 28.0413C214.77 26.8699 214.305 25.4757 214.305 24.0114V11.8273C214.305 10.373 214.779 8.72176 216.098 7.40358L216.312 7.19992C217.407 6.19534 218.891 5.48573 220.647 5.48573V10.3195L220.492 10.3275C220.134 10.3641 219.808 10.5293 219.515 10.8225C219.264 11.0737 219.139 11.4089 219.139 11.8273V24.0114C219.139 24.4298 219.264 24.8068 219.515 25.1416C219.808 25.3615 220.134 25.4851 220.492 25.5125L220.647 25.5179H235.72C236.138 25.5181 236.347 25.7279 236.347 26.1464V96.7371Z"
      fill="#A35903"
    />
  </g>
  <defs>
    <linearGradient
      id="paint0_linear_2001_498"
      x1="219.139"
      y1="54.2824"
      x2="582.359"
      y2="54.2824"
      gradientUnits="userSpaceOnUse"
    >
      <stop stop-color="#4DB0F4" />
      <stop
        offset="1"
        stop-color="#FFB01D"
      />
    </linearGradient>
    <linearGradient
      id="paint1_linear_2001_498"
      x1="219.139"
      y1="54.2824"
      x2="582.359"
      y2="54.2824"
      gradientUnits="userSpaceOnUse"
    >
      <stop stop-color="#4DB0F4" />
      <stop
        offset="0.629808"
        stop-color="#FDCB6D"
      />
      <stop
        offset="1"
        stop-color="#FFB01D"
      />
    </linearGradient>
    <linearGradient
      id="paint2_linear_2001_498"
      x1="219.139"
      y1="54.2824"
      x2="582.359"
      y2="54.2824"
      gradientUnits="userSpaceOnUse"
    >
      <stop stop-color="#4DB0F4" />
      <stop
        offset="1"
        stop-color="#FFB01D"
      />
    </linearGradient>
    <linearGradient
      id="paint3_linear_2001_498"
      x1="219.139"
      y1="54.2824"
      x2="582.359"
      y2="54.2824"
      gradientUnits="userSpaceOnUse"
    >
      <stop stop-color="#4DB0F4" />
      <stop
        offset="0.629808"
        stop-color="#FDCB6D"
      />
      <stop
        offset="1"
        stop-color="#FFB01D"
      />
    </linearGradient>
    <linearGradient
      id="paint4_linear_2001_498"
      x1="219.139"
      y1="54.2824"
      x2="582.359"
      y2="54.2824"
      gradientUnits="userSpaceOnUse"
    >
      <stop stop-color="#4DB0F4" />
      <stop
        offset="1"
        stop-color="#FFB01D"
      />
    </linearGradient>
    <linearGradient
      id="paint5_linear_2001_498"
      x1="219.139"
      y1="54.2824"
      x2="582.359"
      y2="54.2824"
      gradientUnits="userSpaceOnUse"
    >
      <stop stop-color="#4DB0F4" />
      <stop
        offset="0.629808"
        stop-color="#FDCB6D"
      />
      <stop
        offset="1"
        stop-color="#FFB01D"
      />
    </linearGradient>
    <linearGradient
      id="paint6_linear_2001_498"
      x1="219.139"
      y1="54.2824"
      x2="582.359"
      y2="54.2824"
      gradientUnits="userSpaceOnUse"
    >
      <stop stop-color="#4DB0F4" />
      <stop
        offset="1"
        stop-color="#FFB01D"
      />
    </linearGradient>
    <linearGradient
      id="paint7_linear_2001_498"
      x1="219.139"
      y1="54.2824"
      x2="582.359"
      y2="54.2824"
      gradientUnits="userSpaceOnUse"
    >
      <stop stop-color="#4DB0F4" />
      <stop
        offset="0.629808"
        stop-color="#FDCB6D"
      />
      <stop
        offset="1"
        stop-color="#FFB01D"
      />
    </linearGradient>
    <linearGradient
      id="paint8_linear_2001_498"
      x1="219.139"
      y1="54.2824"
      x2="582.359"
      y2="54.2824"
      gradientUnits="userSpaceOnUse"
    >
      <stop stop-color="#4DB0F4" />
      <stop
        offset="1"
        stop-color="#FFB01D"
      />
    </linearGradient>
    <linearGradient
      id="paint9_linear_2001_498"
      x1="219.139"
      y1="54.2824"
      x2="582.359"
      y2="54.2824"
      gradientUnits="userSpaceOnUse"
    >
      <stop stop-color="#4DB0F4" />
      <stop
        offset="0.629808"
        stop-color="#FDCB6D"
      />
      <stop
        offset="1"
        stop-color="#FFB01D"
      />
    </linearGradient>
    <linearGradient
      id="paint10_linear_2001_498"
      x1="219.139"
      y1="54.2824"
      x2="582.359"
      y2="54.2824"
      gradientUnits="userSpaceOnUse"
    >
      <stop stop-color="#4DB0F4" />
      <stop
        offset="1"
        stop-color="#FFB01D"
      />
    </linearGradient>
    <linearGradient
      id="paint11_linear_2001_498"
      x1="219.139"
      y1="54.2824"
      x2="582.359"
      y2="54.2824"
      gradientUnits="userSpaceOnUse"
    >
      <stop stop-color="#4DB0F4" />
      <stop
        offset="0.629808"
        stop-color="#FDCB6D"
      />
      <stop
        offset="1"
        stop-color="#FFB01D"
      />
    </linearGradient>
    <clipPath id="clip0_2001_498">
      <rect
        width="678"
        height="109"
        fill="white"
      />
    </clipPath>
  </defs>
</svg>
